# xmcd CD database file
#
# Track frame offsets:
#	150
#	13071
#	26979
#	40928
#	55508
#	68827
#	82167
#	95638
#	110200
#	123967
#	137191
#	152294
#	165328
#	179451
#	192725
#	206895
#	219485
#	232590
#	245566
#	260554
#	273698
#	287270
#	299814
#	314739
#
# Disc length: 4388 seconds
#
# Revision: 2
# Processed by: cddbd v1.5.1PL2 Copyright (c) Steve Scherf et al.
# Submitted via: CDex 1.51
#
DISCID=75112218
DTITLE=Various Artist - Good for What Ails You: Music of the Medicine Shows, 1926-1937, #1
DYEAR=2005
DGENRE=Country
TTITLE0=Daddy Stovepipe and Mississippi Sarah - The Spasm
TTITLE1=Gid Tanner and Riley Puckett - Tanner's Boarding House
TTITLE2=Lil McClintock - Don't Think I'm Santa Claus
TTITLE3=Dallas String Band with Coley Jones - Hokum Blues
TTITLE4=Shorty Godwin - Jimbo Jambo Land
TTITLE5=Fiddlin' John Carson and His Virginia Reelers - Gonna Swing on the Golden Gate
TTITLE6=Pink Anderson and Simmie Doley - Papa's 'Bout to Get Mad
TTITLE7=Charlie Parker and Mack Woolbright - The Man Who Wrote Home Sweet Home Never was a Married Man
TTITLE8=Jim Jackson - By, Bye, Policeman
TTITLE9=Walter Smith - The Bald-headed End of a Broom
TTITLE10=Allen Brothers - Bow Wow Blues
TTITLE11=Beans Hambone and El Morrow - Beans
TTITLE12=Stovepipe #1 and David Crockett - A Chicken Can Waltz the Gravy Around
TTITLE13=Grant Brothers and Their Music - Tell It to Me
TTITLE14=Carolina Tar Heels - Ain't No Use Working So Hard
TTITLE15=Walter Cole - Mama Keep Your Yes Ma'am Clean
TTITLE16=Kirk McGee and Blythe Poteet - C-H-I-C-K-E-N Spells Chicken
TTITLE17=Banjo Joe - My Money Never Runs Out
TTITLE18=Henry Thomas "Ragtime Texas" - Railroadin' Some
TTITLE19=Prince Albert Hunt's Texas Ramblers - Travelling Man
TTITLE20=Johnson-Nelson-Porkchop - G. Burns is Gonna Rise Again
TTITLE21=Blue Ridge Mountain Entertainers - Baby All Night Long
TTITLE22=Chris Bouchillon - Born in Hard Luck
TTITLE23=Memphis Sheiks - He's In the Jailhouse Now
EXTD=YEAR: 2005
EXTT0=
EXTT1=
EXTT2=
EXTT3=
EXTT4=
EXTT5=
EXTT6=
EXTT7=
EXTT8=
EXTT9=
EXTT10=
EXTT11=
EXTT12=
EXTT13=
EXTT14=
EXTT15=
EXTT16=
EXTT17=
EXTT18=
EXTT19=
EXTT20=
EXTT21=
EXTT22=
EXTT23=
PLAYORDER=
